<svg version="1.1" viewBox="0 0 24 24" fill="#000" xmlns="http://www.w3.org/2000/svg">
	<path d="m9.5 3a6.5 6.5 0 0 1 6.5 6.5c0 1.61-0.59 3.09-1.56 4.23l0.27 0.27h0.79l5 5-1.5 1.5-5-5v-0.79l-0.27-0.27c-1.14 0.97-2.62 1.56-4.23 1.56a6.5 6.5 0 0 1-6.5-6.5 6.5 6.5 0 0 1 6.5-6.5m0 2c-2.5 0-4.5 2-4.5 4.5s2 4.5 4.5 4.5 4.5-2 4.5-4.5-2-4.5-4.5-4.5z"/>
	<g stroke="#000" stroke-width="1.2954">
		<path d="m6.3162 14.336 3.2921-9.8069" />
		<path d="m12.91 14.141-3.3015-9.6121" />
		<path d="m7.8463 10.775 3.6259 0.04175"/>
	</g>
</svg>
