<?xml version="1.0" encoding="UTF-8" standalone="no"?>
<!-- Generator: Adobe Illustrator 16.0.0, SVG Export Plug-In . SVG Version: 6.00 Build 0)  -->

<svg
   xmlns:osb="http://www.openswatchbook.org/uri/2009/osb"
   xmlns:dc="http://purl.org/dc/elements/1.1/"
   xmlns:cc="http://creativecommons.org/ns#"
   xmlns:rdf="http://www.w3.org/1999/02/22-rdf-syntax-ns#"
   xmlns:svg="http://www.w3.org/2000/svg"
   xmlns="http://www.w3.org/2000/svg"
   xmlns:sodipodi="http://sodipodi.sourceforge.net/DTD/sodipodi-0.dtd"
   xmlns:inkscape="http://www.inkscape.org/namespaces/inkscape"
   version="1.1"
   id="Layer_1"
   x="0px"
   y="0px"
   width="512px"
   height="512px"
   viewBox="0 0 512 512"
   enable-background="new 0 0 512 512"
   xml:space="preserve"
   inkscape:version="0.92.2 (5c3e80d, 2017-08-06)"
   sodipodi:docname="geofence.svg"><metadata
     id="metadata9"><rdf:RDF><cc:Work
         rdf:about=""><dc:format>image/svg+xml</dc:format><dc:type
           rdf:resource="http://purl.org/dc/dcmitype/StillImage" /><dc:title /></cc:Work></rdf:RDF></metadata><defs
     id="defs7"><linearGradient
       id="linearGradient4828"
       osb:paint="solid"><stop
         style="stop-color:#000000;stop-opacity:1;"
         offset="0"
         id="stop4826" /></linearGradient></defs><sodipodi:namedview
     pagecolor="#ffffff"
     bordercolor="#666666"
     borderopacity="1"
     objecttolerance="10"
     gridtolerance="10"
     guidetolerance="10"
     inkscape:pageopacity="0"
     inkscape:pageshadow="2"
     inkscape:window-width="1920"
     inkscape:window-height="1046"
     id="namedview5"
     showgrid="false"
     inkscape:zoom="1.3037281"
     inkscape:cx="76.46035"
     inkscape:cy="208.47695"
     inkscape:window-x="0"
     inkscape:window-y="34"
     inkscape:window-maximized="1"
     inkscape:current-layer="Layer_1" /><path
     style="opacity:1;fill:#000000;fill-opacity:1;stroke:#ff0000;stroke-width:0.74185652;stroke-linecap:butt;stroke-miterlimit:4;stroke-dasharray:1.48371298, 0.74185649;stroke-dashoffset:0;stroke-opacity:1"
     d="m 248.51139,468.2406 c -15.41377,-7.79486 -48.75968,-46.49767 -79.06777,-91.76977 -38.38666,-57.33926 -64.81726,-112.67584 -73.278056,-153.419 -2.59253,-12.48442 -3.24106,-30.15021 -1.60386,-43.68937 4.4359,-36.68381 20.382496,-69.84426 46.106676,-95.87738 18.49245,-18.71455 39.89392,-32.023891 64.35373,-40.020892 16.86163,-5.512812 30.51711,-7.618061 49.39388,-7.614992 13.29,0.0022 21.17114,0.747007 32.41553,3.063594 24.59633,5.067376 48.09948,16.239668 68.51896,32.57069 6.01688,4.81215 19.84214,18.78043 24.48546,24.73874 23.26084,29.84832 35.33028,64.20256 35.37793,100.69907 0.0164,12.51496 -0.98321,20.44802 -4.26366,33.83935 -9.33096,38.09054 -34.09779,89.08085 -68.66922,141.37719 -36.63203,55.4134 -74.78687,98.05239 -87.74067,98.05239 -1.19553,0 -3.90855,-0.87733 -6.02893,-1.94962 z m 14.55656,-161.08904 c 38.20715,-3.42225 70.67708,-25.68942 87.79302,-60.20655 11.84168,-23.8807 14.43791,-51.21289 7.36156,-77.49982 -10.38218,-38.56719 -42.43509,-69.20798 -81.0295,-77.45965 -19.30332,-4.12714 -37.88665,-3.06269 -56.66895,3.24599 -56.3855,18.93899 -87.03621,80.83995 -68.21787,137.77007 11.97667,36.2324 41.90555,63.52558 78.79323,71.85429 11.84157,2.67366 20.67037,3.30765 31.96851,2.29567 z"
     id="path3333"
     inkscape:connector-curvature="0" /><ellipse
     id="path14"
     cx="249.66862"
     cy="437.21448"
     rx="199.60722"
     ry="53.104279"
     style="opacity:1;fill:#000000;fill-opacity:0;stroke:#000000;stroke-width:30.74099922;stroke-miterlimit:4;stroke-dasharray:none;stroke-opacity:1" /></svg>