<svg width="512px" height="512px" enable-background="new 0 0 512 512" version="1.1" viewBox="0 0 512 512" xml:space="preserve" xmlns="http://www.w3.org/2000/svg" xmlns:osb="http://www.openswatchbook.org/uri/2009/osb"><g><path d="m365.81 384.13c-13.579-6.9292-42.957-41.334-69.658-81.578-33.818-50.971-57.104-100.16-64.558-136.38-2.284-11.098-2.8554-26.802-1.413-38.837 3.908-32.61 17.957-62.087 40.62-85.229 16.292-16.636 35.146-28.467 56.695-35.576 14.855-4.9006 26.885-6.772 43.516-6.7693 11.708 2e-3 18.652 0.66404 28.558 2.7234 21.669 4.5046 42.375 14.436 60.365 28.953 5.3008 4.2777 17.481 16.695 21.572 21.991 20.493 26.533 31.126 57.072 31.168 89.516 0.0145 11.125-0.8662 18.177-3.7563 30.081-8.2205 33.86-30.04 79.188-60.497 125.68-32.273 49.259-65.887 87.163-77.299 87.163-1.0532 0-3.4434-0.77989-5.3114-1.7331zm12.824-143.2c33.66-3.0422 62.266-22.836 77.345-53.52 10.432-21.229 12.72-45.525 6.4855-68.893-9.1466-34.284-37.385-61.522-71.387-68.857-17.006-3.6688-33.378-2.7226-49.925 2.8855-49.675 16.836-76.678 71.862-60.1 122.47 10.551 32.208 36.919 56.47 69.416 63.874 10.432 2.3767 18.21 2.9403 28.164 2.0407z" stroke="#f00" stroke-dasharray="1.31302459, 0.6565123" stroke-width=".65651"/><ellipse cx="249.67" cy="437.21" rx="199.61" ry="53.104" fill-opacity="0" stroke="#000" stroke-width="30.741"/><path d="m124.06 384.12c-11.488-6.0361-36.341-36.006-58.93-71.063-28.61-44.402-48.309-87.252-54.615-118.8-1.9323-9.6675-2.4156-23.347-1.1954-33.832 3.3061-28.407 15.191-54.085 34.364-74.244 13.783-14.492 29.734-24.798 47.964-30.991 12.567-4.2689 22.745-5.8992 36.814-5.8968 9.9052 0.0019 15.779 0.57845 24.16 2.3723 18.332 3.924 35.849 12.575 51.068 25.222 4.4845 3.7264 14.789 14.543 18.249 19.157 17.337 23.114 26.332 49.716 26.368 77.978 0.0123 9.6912-0.73281 15.834-3.1778 26.204-6.9545 29.496-25.414 68.981-51.18 109.48-27.302 42.91-55.74 75.929-65.394 75.929-0.89106 0-2.9131-0.67938-4.4935-1.5097zm10.849-124.74c28.476-2.6501 52.677-19.893 65.433-46.622 8.8258-18.492 10.761-39.658 5.4867-60.013-7.738-29.865-31.627-53.592-60.392-59.982-14.387-3.1959-28.237-2.3716-42.236 2.5136-42.025 14.666-64.869 62.6-50.844 106.68 8.9264 28.057 31.233 49.192 58.726 55.642 8.8257 2.0704 15.406 2.5613 23.827 1.7777z" stroke="#f00" stroke-dasharray="1.12717939, 0.5635897" stroke-width=".56359"/></g></svg>
