<?xml version="1.0" encoding="UTF-8" standalone="no"?>
<!-- Generator: Adobe Illustrator 16.0.0, SVG Export Plug-In . SVG Version: 6.00 Build 0)  -->

<svg
   xmlns:dc="http://purl.org/dc/elements/1.1/"
   xmlns:cc="http://creativecommons.org/ns#"
   xmlns:rdf="http://www.w3.org/1999/02/22-rdf-syntax-ns#"
   xmlns:svg="http://www.w3.org/2000/svg"
   xmlns="http://www.w3.org/2000/svg"
   xmlns:sodipodi="http://sodipodi.sourceforge.net/DTD/sodipodi-0.dtd"
   xmlns:inkscape="http://www.inkscape.org/namespaces/inkscape"
   version="1.1"
   id="Layer_1"
   x="0px"
   y="0px"
   width="512px"
   height="512px"
   viewBox="0 0 512 512"
   enable-background="new 0 0 512 512"
   xml:space="preserve"
   inkscape:version="0.92.2 (5c3e80d, 2017-08-06)"
   sodipodi:docname="app.svg"><metadata
     id="metadata9"><rdf:RDF><cc:Work
         rdf:about=""><dc:format>image/svg+xml</dc:format><dc:type
           rdf:resource="http://purl.org/dc/dcmitype/StillImage" /></cc:Work></rdf:RDF></metadata><defs
     id="defs7" /><sodipodi:namedview
     pagecolor="#ffffff"
     bordercolor="#666666"
     borderopacity="1"
     objecttolerance="10"
     gridtolerance="10"
     guidetolerance="10"
     inkscape:pageopacity="0"
     inkscape:pageshadow="2"
     inkscape:window-width="1920"
     inkscape:window-height="1080"
     id="namedview5"
     showgrid="false"
     inkscape:zoom="1.3037281"
     inkscape:cx="65.235468"
     inkscape:cy="250.64797"
     inkscape:window-x="0"
     inkscape:window-y="0"
     inkscape:window-maximized="1"
     inkscape:current-layer="Layer_1" /><path
     style="opacity:1;fill:#ffffff;fill-opacity:1;stroke:#000000;stroke-width:0.87800002;stroke-linecap:butt;stroke-miterlimit:4;stroke-dasharray:none;stroke-dashoffset:0;stroke-opacity:1"
     d="M 258.24609,0.6328125 C 235.77498,0.6292035 219.51953,3.1071669 199.44727,9.5917969 170.33005,18.998536 144.85345,34.654369 122.83984,56.667969 92.217507,87.290299 73.235628,126.29476 67.955078,169.44531 c -1.94893,15.92589 -1.177977,36.70737 1.908203,51.39258 10.07183,47.92551 41.534589,113.01567 87.230469,180.46289 36.07908,53.25281 75.77628,98.77831 94.125,107.94727 2.52412,1.26132 5.7526,2.29297 7.17578,2.29297 15.42034,0 60.84012,-50.15408 104.44727,-115.33594 41.15421,-61.51532 70.63646,-121.49551 81.74414,-166.30078 3.90508,-15.752 5.09567,-25.08356 5.07617,-39.80469 C 449.60539,147.16937 435.23878,106.76046 407.54883,71.650391 402.02137,64.641731 385.56294,48.209278 378.40039,42.548828 354.09282,23.338914 326.11372,10.198951 296.83398,4.2382812 283.44854,1.5133192 274.06665,0.6353125 258.24609,0.6328125 Z M 203.38196,56.093596 h 109.48242 c 18.98276,0 49.85384,15.678704 49.73906,34.044379 L 361.06938,335.6014 c -0.11489,18.38304 -29.22815,33.25391 -48.23821,33.25391 h -109.44921 -0.0352 c -19.00064,-0.0184 -49.73906,-14.1257 -49.73906,-32.49078 V 90.137975 c 0,-18.366034 30.76758,-34.044379 49.77422,-34.044379 z m 31.29687,20.267578 c -1.89929,0 -3.44956,1.331103 -3.44922,2.960938 0,1.63678 1.57043,2.966797 3.44922,2.966797 h 46.89258 c 1.90614,0 3.44922,-1.330017 3.44922,-2.966797 0,-1.629835 -1.54992,-2.960938 -3.44922,-2.960938 z m -47.07617,32.527336 c -2.84554,0 -5.15039,2.23684 -5.15039,4.9961 v 196.31054 c 0,2.74884 2.30485,4.98047 5.15039,4.98047 h 141.04687 c 2.85235,0 5.14844,-2.23163 5.14844,-4.98047 V 113.88461 c 0,-2.76968 -2.29609,-4.9961 -5.14844,-4.9961 z m 70.53711,217.3711 c -8.52636,0 -15.39258,6.99688 -15.39258,15.64648 0,8.61137 6.87645,15.63086 15.39258,15.63086 8.48535,0 15.35156,-7.00908 15.35156,-15.63086 0,-8.66002 -6.85596,-15.64648 -15.35156,-15.64648 z"
     id="path3333"
     inkscape:connector-curvature="0"
     sodipodi:nodetypes="cssssssssscssscsssssccsssssssssssssssssssssssss" /></svg>