<?xml version="1.0" encoding="UTF-8" standalone="no"?>
<!-- Generator: Adobe Illustrator 16.0.0, SVG Export Plug-In . SVG Version: 6.00 Build 0)  -->

<svg
   xmlns:dc="http://purl.org/dc/elements/1.1/"
   xmlns:cc="http://creativecommons.org/ns#"
   xmlns:rdf="http://www.w3.org/1999/02/22-rdf-syntax-ns#"
   xmlns:svg="http://www.w3.org/2000/svg"
   xmlns="http://www.w3.org/2000/svg"
   xmlns:sodipodi="http://sodipodi.sourceforge.net/DTD/sodipodi-0.dtd"
   xmlns:inkscape="http://www.inkscape.org/namespaces/inkscape"
   version="1.1"
   id="Layer_1"
   x="0px"
   y="0px"
   width="512px"
   height="512px"
   viewBox="0 0 512 512"
   enable-background="new 0 0 512 512"
   xml:space="preserve"
   inkscape:version="0.92.1 r15371"
   sodipodi:docname="app.svg"><metadata
     id="metadata9"><rdf:RDF><cc:Work
         rdf:about=""><dc:format>image/svg+xml</dc:format><dc:type
           rdf:resource="http://purl.org/dc/dcmitype/StillImage" /></cc:Work></rdf:RDF></metadata><defs
     id="defs7" /><sodipodi:namedview
     pagecolor="#ffffff"
     bordercolor="#666666"
     borderopacity="1"
     objecttolerance="10"
     gridtolerance="10"
     guidetolerance="10"
     inkscape:pageopacity="0"
     inkscape:pageshadow="2"
     inkscape:window-width="1366"
     inkscape:window-height="718"
     id="namedview5"
     showgrid="false"
     inkscape:zoom="1.3037281"
     inkscape:cx="182.69416"
     inkscape:cy="300.52068"
     inkscape:window-x="0"
     inkscape:window-y="0"
     inkscape:window-maximized="0"
     inkscape:current-layer="Layer_1" /><path
     d="M256,0C149.969,0,64,85.969,64,192s160,320,192,320s192-213.969,192-320S362.031,0,256,0z M256,320  c-70.594,0-128-57.438-128-128S185.406,64,256,64s128,57.438,128,128S326.594,320,256,320z"
     id="path3"
     style="fill:#b3b3b3" /><path
     style="opacity:1;fill:#ffffff;fill-opacity:1;stroke:#000000;stroke-width:0.878;stroke-linecap:butt;stroke-miterlimit:4;stroke-dasharray:none;stroke-dashoffset:0;stroke-opacity:1"
     d="M 248.91673,509.24858 C 230.56801,500.07962 190.87269,454.55414 154.79361,401.30133 109.09773,333.85411 77.634458,268.76261 67.562633,220.8371 64.476451,206.15189 63.704442,185.37191 65.653374,169.44602 70.933923,126.29547 89.916923,87.289393 120.53926,56.667063 142.55287,34.653457 168.02941,18.997898 197.14663,9.5911583 c 20.07226,-6.4846296 36.32789,-8.96099834 58.799,-8.9573893 15.82056,0.002539 25.20235,0.8786925 38.58779,3.6036552 29.27974,5.9606698 57.25814,19.1024518 81.56571,38.3123618 7.16255,5.660455 23.62029,22.091106 29.14775,29.099766 27.68995,35.110068 42.05754,75.520398 42.11426,118.450638 0.0195,14.72113 -1.17042,24.05266 -5.0755,39.80466 -11.10768,44.80527 -40.59037,104.78432 -81.74458,166.29964 -43.60715,65.18186 -89.02708,115.3374 -104.44742,115.3374 -1.42318,0 -4.65279,-1.03199 -7.17691,-2.29331 z m 17.32829,-189.48636 c 45.4822,-4.02553 84.13475,-30.21804 104.50975,-70.81996 14.09646,-28.09048 17.18704,-60.24088 8.76327,-91.16176 -12.35905,-45.36594 -50.51518,-81.408176 -96.45838,-91.114479 -22.97888,-4.854691 -45.10067,-3.602599 -67.45932,3.818196 -67.1219,22.277628 -103.60883,95.090683 -81.20728,162.056633 14.25716,42.61957 49.88481,74.72409 93.7963,84.52101 14.09633,3.14498 24.60623,3.89074 38.05566,2.70036 z"
     id="path3333"
     inkscape:connector-curvature="0" /><path
     id="path864"
     d="m 213.92518,309.24895 h 85.26683 c 14.8053,0 26.81716,-11.09852 26.81716,-24.8193 V 100.65159 c 0,-13.707802 -12.00654,-24.837452 -26.79057,-24.837452 h -85.2668 c -14.80264,0 -26.81716,11.12965 -26.81716,24.837452 v 183.77546 c 0,13.71559 12.00654,24.8219 26.81716,24.8219 m 42.64671,-8.44773 c -6.63247,0 -11.98791,-5.23932 -11.98791,-11.66656 0,-6.45578 5.34747,-11.67693 11.98791,-11.67693 6.61649,0 11.95598,5.21337 11.95598,11.67693 0,6.43501 -5.34747,11.66656 -11.95598,11.66656 M 238.32666,90.940716 h 36.51974 c 1.4792,0 2.68704,0.993398 2.68704,2.209851 0,1.221636 -1.20251,2.215032 -2.68704,2.215032 h -36.51974 c -1.46324,0 -2.68703,-0.993396 -2.68703,-2.215032 -2.6e-4,-1.216453 1.20783,-2.209851 2.68703,-2.209851 m -40.67533,28.006994 c 0,-2.05942 1.79579,-3.72977 4.01194,-3.72977 h 109.84921 c 2.22145,0 4.00925,1.66257 4.00925,3.72977 v 146.51924 c 0,2.05164 -1.7878,3.71681 -4.00925,3.71681 H 201.66327 c -2.21615,0 -4.01194,-1.66517 -4.01194,-3.71681 V 118.94771"
     inkscape:connector-curvature="0"
     style="stroke-width:1.427;fill-opacity:1;fill:#fffffb;stroke:#000000;stroke-opacity:1;stroke-miterlimit:4;stroke-dasharray:none"
     inkscape:export-xdpi="96"
     inkscape:export-ydpi="96" /></svg>