<?xml version="1.0" encoding="UTF-8" standalone="no"?>
<!-- Generator: Adobe Illustrator 16.0.0, SVG Export Plug-In . SVG Version: 6.00 Build 0)  -->

<svg
   xmlns:dc="http://purl.org/dc/elements/1.1/"
   xmlns:cc="http://creativecommons.org/ns#"
   xmlns:rdf="http://www.w3.org/1999/02/22-rdf-syntax-ns#"
   xmlns:svg="http://www.w3.org/2000/svg"
   xmlns="http://www.w3.org/2000/svg"
   xmlns:sodipodi="http://sodipodi.sourceforge.net/DTD/sodipodi-0.dtd"
   xmlns:inkscape="http://www.inkscape.org/namespaces/inkscape"
   version="1.1"
   id="Layer_1"
   x="0px"
   y="0px"
   width="512px"
   height="512px"
   viewBox="0 0 512 512"
   enable-background="new 0 0 512 512"
   xml:space="preserve"
   inkscape:version="0.92.1 r15371"
   sodipodi:docname="app.svg"><metadata
     id="metadata9"><rdf:RDF><cc:Work
         rdf:about=""><dc:format>image/svg+xml</dc:format><dc:type
           rdf:resource="http://purl.org/dc/dcmitype/StillImage" /></cc:Work></rdf:RDF></metadata><defs
     id="defs7" /><sodipodi:namedview
     pagecolor="#ffffff"
     bordercolor="#666666"
     borderopacity="1"
     objecttolerance="10"
     gridtolerance="10"
     guidetolerance="10"
     inkscape:pageopacity="0"
     inkscape:pageshadow="2"
     inkscape:window-width="1366"
     inkscape:window-height="718"
     id="namedview5"
     showgrid="false"
     inkscape:zoom="0.65186405"
     inkscape:cx="138.51452"
     inkscape:cy="300.8364"
     inkscape:window-x="0"
     inkscape:window-y="0"
     inkscape:window-maximized="0"
     inkscape:current-layer="Layer_1" /><path
     d="M256,0C149.969,0,64,85.969,64,192s160,320,192,320s192-213.969,192-320S362.031,0,256,0z M256,320  c-70.594,0-128-57.438-128-128S185.406,64,256,64s128,57.438,128,128S326.594,320,256,320z"
     id="path3"
     style="fill:#b3b3b3" /><path
     style="opacity:1;fill:#ffffff;fill-opacity:1;stroke:#000000;stroke-width:0.87800002;stroke-linecap:butt;stroke-miterlimit:4;stroke-dasharray:none;stroke-dashoffset:0;stroke-opacity:1"
     d="M 248.91673,509.24858 C 230.56801,500.07962 190.87269,454.55414 154.79361,401.30133 109.09773,333.85411 77.634458,268.76261 67.562633,220.8371 64.476451,206.15189 63.704442,185.37191 65.653374,169.44602 70.933923,126.29547 89.916923,87.289393 120.53926,56.667063 142.55287,34.653457 168.02941,18.997898 197.14663,9.5911583 c 20.07226,-6.4846296 36.32789,-8.96099834 58.799,-8.9573893 15.82056,0.002539 25.20235,0.8786925 38.58779,3.6036552 29.27974,5.9606698 57.25814,19.1024518 81.56571,38.3123618 7.16255,5.660455 23.62029,22.091106 29.14775,29.099766 27.68995,35.110068 42.05754,75.520398 42.11426,118.450638 0.0195,14.72113 -1.17042,24.05266 -5.0755,39.80466 -11.10768,44.80527 -40.59037,104.78432 -81.74458,166.29964 -43.60715,65.18186 -89.02708,115.3374 -104.44742,115.3374 -1.42318,0 -4.65279,-1.03199 -7.17691,-2.29331 z"
     id="path3333"
     inkscape:connector-curvature="0"
     sodipodi:nodetypes="sssssssssscssss" /><path
     id="path864"
     d="m 202.58037,364.25285 h 109.48296 c 19.01006,0 34.43334,-14.87006 34.43334,-33.25346 V 84.769275 c 0,-18.366031 -15.41644,-33.277794 -34.3992,-33.277794 H 202.61454 c -19.00664,0 -34.43333,14.911763 -34.43333,33.277794 V 330.99589 c 0,18.37647 15.41644,33.25696 34.43333,33.25696 m 54.75856,-11.31846 c -8.51613,0 -15.39253,-7.01977 -15.39253,-15.63114 0,-8.6496 6.86617,-15.64501 15.39253,-15.64501 8.4956,0 15.35152,6.98499 15.35152,15.64501 0,8.62178 -6.86617,15.63114 -15.35152,15.63114 M 233.91196,71.758421 h 46.8915 c 1.8993,0 3.45018,1.330977 3.45018,2.960809 0,1.636777 -1.54404,2.967752 -3.45018,2.967752 h -46.8915 c -1.87879,0 -3.45015,-1.330975 -3.45015,-2.967752 -3.4e-4,-1.629832 1.55086,-2.960809 3.45015,-2.960809 m -52.22728,37.524419 c 0,-2.75926 2.3058,-4.99724 5.15134,-4.99724 h 141.04684 c 2.85235,0 5.1479,2.22756 5.1479,4.99724 v 196.30987 c 0,2.74884 -2.29555,4.97987 -5.1479,4.97987 H 186.83602 c -2.84554,0 -5.15134,-2.23103 -5.15134,-4.97987 V 109.28284"
     inkscape:connector-curvature="0"
     style="fill:#000000;fill-opacity:1;stroke:#000000;stroke-width:1.87167716;stroke-miterlimit:4;stroke-dasharray:none;stroke-opacity:1"
     inkscape:export-xdpi="96"
     inkscape:export-ydpi="96" /></svg>