<?xml version="1.0" encoding="UTF-8" standalone="no"?>
<!-- Generator: Adobe Illustrator 16.0.0, SVG Export Plug-In . SVG Version: 6.00 Build 0)  -->

<svg
   xmlns:dc="http://purl.org/dc/elements/1.1/"
   xmlns:cc="http://creativecommons.org/ns#"
   xmlns:rdf="http://www.w3.org/1999/02/22-rdf-syntax-ns#"
   xmlns:svg="http://www.w3.org/2000/svg"
   xmlns="http://www.w3.org/2000/svg"
   xmlns:sodipodi="http://sodipodi.sourceforge.net/DTD/sodipodi-0.dtd"
   xmlns:inkscape="http://www.inkscape.org/namespaces/inkscape"
   version="1.1"
   id="Layer_1"
   x="0px"
   y="0px"
   width="512px"
   height="512px"
   viewBox="0 0 512 512"
   enable-background="new 0 0 512 512"
   xml:space="preserve"
   inkscape:version="0.92.2 (5c3e80d, 2017-08-06)"
   sodipodi:docname="app_black.svg"><metadata
     id="metadata9"><rdf:RDF><cc:Work
         rdf:about=""><dc:format>image/svg+xml</dc:format><dc:type
           rdf:resource="http://purl.org/dc/dcmitype/StillImage" /><dc:title /></cc:Work></rdf:RDF></metadata><defs
     id="defs7" /><sodipodi:namedview
     pagecolor="#ffffff"
     bordercolor="#666666"
     borderopacity="1"
     objecttolerance="10"
     gridtolerance="10"
     guidetolerance="10"
     inkscape:pageopacity="0"
     inkscape:pageshadow="2"
     inkscape:window-width="1709"
     inkscape:window-height="942"
     id="namedview5"
     showgrid="false"
     inkscape:zoom="1.3037281"
     inkscape:cx="242.23636"
     inkscape:cy="269.99256"
     inkscape:window-x="0"
     inkscape:window-y="0"
     inkscape:window-maximized="0"
     inkscape:current-layer="Layer_1" /><path
     style="opacity:1;fill:#000000;fill-opacity:1;stroke:#000000;stroke-width:0.87800002;stroke-linecap:butt;stroke-miterlimit:4;stroke-dasharray:none;stroke-dashoffset:0;stroke-opacity:1"
     d="m 259.78046,0.63281299 c -22.47111,-0.0036 -38.72657,2.47435401 -58.79883,8.95898401 -29.11722,9.40674 -54.59381,25.062566 -76.60742,47.076172 -30.622329,30.62233 -49.604209,69.626791 -54.884759,112.777341 -1.94893,15.92589 -1.17798,36.70737 1.9082,51.39258 10.07183,47.92551 41.534589,113.01567 87.230469,180.46289 36.07908,53.25281 75.77433,98.77831 94.12305,107.94727 2.52412,1.26132 5.75455,2.29297 7.17773,2.29297 15.42034,0 60.84012,-50.15408 104.44727,-115.33594 41.15421,-61.51532 70.63646,-121.49551 81.74414,-166.30078 3.90508,-15.752 5.09567,-25.08356 5.07617,-39.80469 C 451.13978,147.16937 436.77119,106.76046 409.08124,71.650389 403.55378,64.641729 387.09731,48.209283 379.93476,42.548828 355.62719,23.338918 327.64809,10.198951 298.36835,4.238281 284.98291,1.513319 275.60102,0.63535199 259.78046,0.63281299 Z m -52.375,53.90624901 h 105.26953 c 18.25244,0 33.07618,14.803677 33.07618,33.037107 V 332.02734 c 0,18.2507 -14.83069,33.01368 -33.10938,33.01368 h -105.23633 -0.0332 c -18.26993,-0.018 -33.07617,-14.78292 -33.07617,-33.01563 V 87.576169 c 0,-18.23343 14.83396,-33.037107 33.10937,-33.037107 z m 30.0918,20.119137 c -1.82623,0 -3.31673,1.32139 -3.31641,2.93946 0,1.62496 1.50989,2.94726 3.31641,2.94726 h 45.08789 c 1.83281,0 3.31836,-1.3223 3.31836,-2.94726 0,-1.61807 -1.49213,-2.93946 -3.31836,-2.93946 z m -45.26367,32.292971 c -2.73606,0 -4.95313,2.2216 -4.95313,4.96094 v 194.89258 c 0,2.729 2.21707,4.94336 4.95313,4.94336 h 135.61914 c 2.74261,0 4.95117,-2.21436 4.95117,-4.94336 V 111.91211 c 0,-2.74968 -2.20856,-4.96094 -4.95117,-4.96094 z m 67.82226,215.80274 c -8.19831,0 -14.79882,6.94605 -14.79882,15.5332 -10e-6,8.5492 6.61035,15.51758 14.79882,15.51758 8.15891,0 14.76172,-6.95804 14.76172,-15.51758 0,-8.5975 -6.59296,-15.5332 -14.76172,-15.5332 z"
     id="path3333"
     inkscape:connector-curvature="0" /></svg>