<?xml version="1.0" encoding="UTF-8" standalone="no"?>
<!-- Generator: Adobe Illustrator 16.0.0, SVG Export Plug-In . SVG Version: 6.00 Build 0)  -->

<svg
   xmlns:dc="http://purl.org/dc/elements/1.1/"
   xmlns:cc="http://creativecommons.org/ns#"
   xmlns:rdf="http://www.w3.org/1999/02/22-rdf-syntax-ns#"
   xmlns:svg="http://www.w3.org/2000/svg"
   xmlns="http://www.w3.org/2000/svg"
   xmlns:sodipodi="http://sodipodi.sourceforge.net/DTD/sodipodi-0.dtd"
   xmlns:inkscape="http://www.inkscape.org/namespaces/inkscape"
   version="1.1"
   id="Layer_1"
   x="0px"
   y="0px"
   width="512px"
   height="512px"
   viewBox="0 0 512 512"
   enable-background="new 0 0 512 512"
   xml:space="preserve"
   inkscape:version="0.92.1 r15371"
   sodipodi:docname="app_black.svg"><metadata
     id="metadata9"><rdf:RDF><cc:Work
         rdf:about=""><dc:format>image/svg+xml</dc:format><dc:type
           rdf:resource="http://purl.org/dc/dcmitype/StillImage" /><dc:title /></cc:Work></rdf:RDF></metadata><defs
     id="defs7" /><sodipodi:namedview
     pagecolor="#ffffff"
     bordercolor="#666666"
     borderopacity="1"
     objecttolerance="10"
     gridtolerance="10"
     guidetolerance="10"
     inkscape:pageopacity="0"
     inkscape:pageshadow="2"
     inkscape:window-width="1366"
     inkscape:window-height="718"
     id="namedview5"
     showgrid="false"
     inkscape:zoom="0.46093749"
     inkscape:cx="-97.33512"
     inkscape:cy="477.47487"
     inkscape:window-x="0"
     inkscape:window-y="0"
     inkscape:window-maximized="0"
     inkscape:current-layer="Layer_1" /><path
     d="M256,0C149.969,0,64,85.969,64,192s160,320,192,320s192-213.969,192-320S362.031,0,256,0z M256,320  c-70.594,0-128-57.438-128-128S185.406,64,256,64s128,57.438,128,128S326.594,320,256,320z"
     id="path3"
     style="fill:#b3b3b3" /><path
     style="opacity:1;fill:#000000;fill-opacity:1;stroke:#000000;stroke-width:0.87800002;stroke-linecap:butt;stroke-miterlimit:4;stroke-dasharray:none;stroke-dashoffset:0;stroke-opacity:1"
     d="M 248.91673,509.24858 C 230.56801,500.07962 190.87269,454.55414 154.79361,401.30133 109.09773,333.85411 77.634458,268.76261 67.562633,220.8371 64.476451,206.15189 63.704442,185.37191 65.653374,169.44602 70.933923,126.29547 89.916923,87.289393 120.53926,56.667063 142.55287,34.653457 168.02941,18.997898 197.14663,9.5911583 c 20.07226,-6.4846296 36.32789,-8.96099834 58.799,-8.9573893 15.82056,0.002539 25.20235,0.8786925 38.58779,3.6036552 29.27974,5.9606698 57.25814,19.1024518 81.56571,38.3123618 7.16255,5.660455 23.62029,22.091106 29.14775,29.099766 27.68995,35.110068 42.05754,75.520398 42.11426,118.450638 0.0195,14.72113 -1.17042,24.05266 -5.0755,39.80466 -11.10768,44.80527 -40.59037,104.78432 -81.74458,166.29964 -43.60715,65.18186 -89.02708,115.3374 -104.44742,115.3374 -1.42318,0 -4.65279,-1.03199 -7.17691,-2.29331 z"
     id="path3333"
     inkscape:connector-curvature="0"
     sodipodi:nodetypes="sssssssssscssss" /><path
     id="path864"
     d="m 203.53653,365.04138 h 105.27086 c 18.27869,0 33.1086,-14.76269 33.1086,-33.01339 V 87.57564 c 0,-18.23343 -14.82334,-33.037531 -33.07578,-33.037531 H 203.5694 c -18.27541,0 -33.1086,14.804101 -33.1086,33.037531 v 244.44889 c 0,18.2438 14.82334,33.01685 33.1086,33.01685 m 52.65183,-11.23674 c -8.18847,0 -14.80033,-6.96909 -14.80033,-15.51829 0,-8.58715 6.60202,-15.53205 14.80033,-15.53205 8.16876,0 14.76092,6.93455 14.76092,15.53205 0,8.55954 -6.60201,15.51829 -14.76092,15.51829 M 233.66272,74.658723 h 45.08745 c 1.82623,0 3.31743,1.321368 3.31743,2.939433 0,1.624959 -1.48462,2.946324 -3.31743,2.946324 h -45.08745 c -1.80652,0 -3.31742,-1.321365 -3.31742,-2.946324 -3.2e-4,-1.618065 1.49119,-2.939433 3.31742,-2.939433 m -50.21797,37.253497 c 0,-2.73934 2.2171,-4.96115 4.95316,-4.96115 H 324.0183 c 2.74261,0 4.94983,2.21147 4.94983,4.96115 v 194.89253 c 0,2.729 -2.20722,4.94392 -4.94983,4.94392 H 188.39791 c -2.73606,0 -4.95316,-2.21492 -4.95316,-4.94392 V 111.91222"
     inkscape:connector-curvature="0"
     style="fill:#ffffff;fill-opacity:1;stroke:#000000;stroke-width:1.82868242;stroke-miterlimit:4;stroke-dasharray:none;stroke-opacity:1"
     inkscape:export-xdpi="96"
     inkscape:export-ydpi="96" /></svg>