<svg width="1147.4px" height="1147.4px" enable-background="new 0 0 947.383 947.383" version="1.1" viewBox="0 0 1147.4 1147.4" xml:space="preserve" xmlns="http://www.w3.org/2000/svg">
	<circle cx="573.28" cy="573.68" r="538" fill="white" stroke="#000" stroke-width="70"/>
	<path d="m571.8 192.84c-35.142-6e-3 -60.564 3.8697-91.955 14.011-45.536 14.711-85.378 39.196-119.8 73.621-47.889 47.889-77.575 108.89-85.834 176.37-3.0478 24.906-1.8423 57.405 2.9842 80.372 15.751 74.951 64.956 176.75 136.42 282.22 56.423 83.281 118.5 154.48 147.2 168.82 3.9474 1.9725 8.9995 3.586 11.225 3.586 24.115 0 95.146-78.435 163.35-180.38 64.36-96.202 110.47-190.01 127.84-260.07 6.1071-24.634 7.969-39.228 7.9386-62.25-0.0887-67.137-22.559-130.33-65.863-185.24-8.6444-10.961-34.38-36.659-45.581-45.512-38.015-30.042-81.771-50.592-127.56-59.914-20.933-4.2616-35.605-5.6345-60.347-5.6386zm-81.908 84.303h164.63c28.544 0 51.727 23.152 51.727 51.666v382.29c0 28.542-23.194 51.63-51.778 51.63h-164.63c-28.572-0.0282-51.727-23.119-51.727-51.633v-382.29c0-28.514 23.199-51.666 51.778-51.666zm47.06 31.464c-2.856 0-5.1869 2.0665-5.1865 4.597 0 2.5413 2.3613 4.6092 5.1865 4.6092h70.512c2.8663 0 5.1896-2.0679 5.1896-4.6092 0-2.5305-2.3335-4.597-5.1896-4.597zm-70.787 50.502c-4.2789 0-7.746 3.4743-7.746 7.7583v304.78c0 4.2678 3.4673 7.7309 7.746 7.7309h212.09c4.2891 0 7.7431-3.4631 7.7431-7.7309v-304.78c0-4.3002-3.454-7.7583-7.7431-7.7583zm106.07 337.49c-12.821 0-23.144 10.863-23.144 24.292-1e-5 13.37 10.338 24.268 23.144 24.268 12.76 0 23.086-10.881 23.086-24.268 0-13.445-10.311-24.292-23.086-24.292z"
		fill="#000000"
	/>
</svg>
