<?xml version="1.0" encoding="UTF-8" standalone="no"?>
<!-- Generator: Adobe Illustrator 16.0.0, SVG Export Plug-In . SVG Version: 6.00 Build 0)  -->

<svg
   xmlns:osb="http://www.openswatchbook.org/uri/2009/osb"
   xmlns:dc="http://purl.org/dc/elements/1.1/"
   xmlns:cc="http://creativecommons.org/ns#"
   xmlns:rdf="http://www.w3.org/1999/02/22-rdf-syntax-ns#"
   xmlns:svg="http://www.w3.org/2000/svg"
   xmlns="http://www.w3.org/2000/svg"
   xmlns:sodipodi="http://sodipodi.sourceforge.net/DTD/sodipodi-0.dtd"
   xmlns:inkscape="http://www.inkscape.org/namespaces/inkscape"
   version="1.1"
   id="Layer_1"
   x="0px"
   y="0px"
   width="512px"
   height="512px"
   viewBox="0 0 512 512"
   enable-background="new 0 0 512 512"
   xml:space="preserve"
   inkscape:version="0.92.4 (5da689c313, 2019-01-14)"
   sodipodi:docname="proximity.svg"><metadata
     id="metadata9"><rdf:RDF><cc:Work
         rdf:about=""><dc:format>image/svg+xml</dc:format><dc:type
           rdf:resource="http://purl.org/dc/dcmitype/StillImage" /><dc:title /></cc:Work></rdf:RDF></metadata><defs
     id="defs7"><linearGradient
       id="linearGradient4828"
       osb:paint="solid"><stop
         style="stop-color:#000000;stop-opacity:1;"
         offset="0"
         id="stop4826" /></linearGradient></defs><sodipodi:namedview
     pagecolor="#ffffff"
     bordercolor="#666666"
     borderopacity="1"
     objecttolerance="10"
     gridtolerance="10"
     guidetolerance="10"
     inkscape:pageopacity="0"
     inkscape:pageshadow="2"
     inkscape:window-width="1920"
     inkscape:window-height="1051"
     id="namedview5"
     showgrid="false"
     inkscape:zoom="1.3037281"
     inkscape:cx="163.51838"
     inkscape:cy="199.27259"
     inkscape:window-x="0"
     inkscape:window-y="-37"
     inkscape:window-maximized="1"
     inkscape:current-layer="Layer_1" /><path
     style="opacity:1;fill:#000000;fill-opacity:1;stroke:#ff0000;stroke-width:0.65651232;stroke-linecap:butt;stroke-miterlimit:4;stroke-dasharray:1.31302459, 0.6565123;stroke-dashoffset:0;stroke-opacity:1"
     d="m 365.80556,384.12638 c -13.57944,-6.92917 -42.957,-41.33367 -69.65826,-81.57789 -33.81843,-50.9712 -57.10364,-100.16214 -64.55755,-136.38039 -2.28401,-11.09791 -2.85536,-26.80175 -1.41299,-38.83726 3.908,-32.60973 17.95686,-62.087403 40.61971,-85.229303 16.29175,-16.636127 35.14632,-28.467342 56.69528,-35.5762008 14.855,-4.900563 26.8854,-6.77200502 43.51573,-6.76927702 11.70842,0.002 18.65166,0.664045 28.5579,2.72335402 21.66923,4.504597 42.37537,14.4361018 60.36482,28.9534138 5.30084,4.27771 17.48081,16.69469 21.57155,21.99127 20.49267,26.53339 31.12578,57.072273 31.16776,89.515503 0.0145,11.12506 -0.8662,18.17708 -3.75626,30.08118 -8.22052,33.86023 -30.03996,79.18759 -60.4972,125.67593 -32.27261,49.25923 -65.88681,87.16276 -77.29904,87.16276 -1.05325,0 -3.44341,-0.77989 -5.31145,-1.73309 z m 12.82425,-143.19861 c 33.66028,-3.04217 62.26611,-22.83637 77.34516,-53.52005 10.43245,-21.22852 12.71971,-45.52522 6.48549,-68.89274 -9.14664,-34.283953 -37.38508,-61.521793 -71.38654,-68.857043 -17.00611,-3.66878 -33.37792,-2.72255 -49.92502,2.8855 -49.67531,16.83563 -76.67841,71.861923 -60.09956,122.469423 10.55138,32.20845 36.91855,56.47047 69.41639,63.8742 10.43236,2.37672 18.21048,2.9403 28.16408,2.04071 z"
     id="path3333"
     inkscape:connector-curvature="0" /><ellipse
     id="path14"
     cx="249.66862"
     cy="437.21448"
     rx="199.60722"
     ry="53.104279"
     style="opacity:1;fill:#000000;fill-opacity:0;stroke:#000000;stroke-width:30.74099922;stroke-miterlimit:4;stroke-dasharray:none;stroke-opacity:1" /><path
     style="opacity:1;fill:#000000;fill-opacity:1;stroke:#ff0000;stroke-width:0.56358969;stroke-linecap:butt;stroke-miterlimit:4;stroke-dasharray:1.12717939, 0.5635897;stroke-dashoffset:0;stroke-opacity:1"
     d="M 124.05959,384.12001 C 112.57149,378.08392 87.718308,348.11374 65.129249,313.05652 36.519126,268.65489 16.820017,225.80408 10.51407,194.25392 8.5818171,184.58641 8.0984591,170.9066 9.3186901,160.42232 12.624827,132.01559 24.510058,106.33723 43.682653,86.178053 c 13.78269,-14.49194 29.73351,-24.79825 47.963759,-30.99086 12.567208,-4.26894 22.744838,-5.89917 36.813968,-5.896793 9.90522,0.0019 15.77916,0.578446 24.15976,2.37234 18.33199,3.924013 35.84922,12.575463 51.06815,25.221653 4.48447,3.72638 14.78863,14.54295 18.24937,19.156856 17.33664,23.113561 26.33216,49.716361 26.36768,77.978061 0.0123,9.69116 -0.73281,15.83426 -3.17776,26.20405 -6.9545,29.49607 -25.41358,68.98128 -51.18017,109.47784 -27.30237,42.91029 -55.73971,75.92853 -65.39436,75.92853 -0.89106,0 -2.9131,-0.67938 -4.49346,-1.50972 z m 10.84923,-124.74204 c 28.47632,-2.65007 52.67662,-19.89304 65.43339,-46.62196 8.82576,-18.49243 10.76077,-39.65757 5.48667,-60.01329 C 198.09089,122.87756 174.2014,99.150329 145.43644,92.760519 131.04939,89.564603 117.19897,90.388873 103.20025,95.274099 61.175329,109.93983 38.330919,157.87389 52.356497,201.9587 c 8.926379,28.05717 31.232807,49.19211 58.725723,55.64158 8.82569,2.0704 15.40592,2.56134 23.8266,1.77769 z"
     id="path3333-3"
     inkscape:connector-curvature="0" /></svg>